<?xml version="1.0" encoding="UTF-8"?>
<svg id="_圖層_1" xmlns="http://www.w3.org/2000/svg" xmlns:xlink="http://www.w3.org/1999/xlink" viewBox="0 0 43.68 45.13">
  <defs>
    <style>
      .cls-1 {
        fill: none;
      }

      .cls-2 {
        clip-path: url(#clippath-1);
      }

      .cls-3 {
        fill: #231815;
      }

      .cls-4 {
        fill: #fff;
      }

      .cls-5 {
        clip-path: url(#clippath);
      }
    </style>
    <clipPath id="clippath">
      <circle class="cls-1" cx="22.06" cy="21.84" r="20.12"/>
    </clipPath>
    <clipPath id="clippath-1">
      <circle class="cls-1" cx="22.06" cy="21.84" r="20.12"/>
    </clipPath>
  </defs>
  <circle class="cls-4" cx="21.84" cy="21.84" r="21.84"/>
  <g>
    <path class="cls-3" d="M7.38,18.43h33.71c.24-.29.35-.43.58-.72-.83-3.75-2.69-7.12-5.28-9.77-.11-.12-.27-.18-.43-.18-2.65,0-25.67.04-28.31.04-.16,0-.31.07-.43.18-3.55,3.66-5.73,8.65-5.73,14.16,0,5.02,1.82,9.61,4.84,13.16.36.42,1.05.18,1.05-.37v-16.5h0Z"/>
    <g class="cls-5">
      <g>
        <polygon class="cls-3" points="25.84 30.92 25.84 30.91 24.98 30.91 8.61 35.19 8.61 38.72 24.98 34.31 25.81 34.31 42.18 38.72 42.18 35.19 25.84 30.92"/>
        <polygon class="cls-3" points="26.04 19.51 26.04 30.19 27.58 30.59 28.36 30.79 28.36 30.79 42.18 34.36 42.18 30.12 42.18 30.09 42.18 19.51 26.04 19.51"/>
        <polygon class="cls-3" points="8.61 19.51 8.61 29.89 11.16 29.89 11.16 30.17 11.16 30.55 11.16 30.95 8.63 30.95 8.63 34.31 24.98 30.12 24.98 19.51 8.61 19.51"/>
        <polygon class="cls-3" points="26.31 35.46 25.88 35.33 24.95 35.33 8.61 39.89 8.61 41.95 17.98 41.95 18.41 41.95 18.99 41.95 21.62 39.32 22.42 40.13 20.6 41.95 20.76 41.95 21.16 41.95 23.35 41.95 25.68 39.62 26.49 40.43 24.96 41.95 25.75 41.95 28.2 41.95 29.64 41.95 31.44 41.95 42.18 41.95 42.18 40.29 42.18 39.99 26.31 35.46"/>
      </g>
    </g>
    <g class="cls-2">
      <rect class="cls-3" x="10.1" y="-3.08" width="23.92" height="12.78" rx="4.22" ry="4.22"/>
    </g>
  </g>
</svg>