<?xml version="1.0" encoding="UTF-8"?>
<svg xmlns="http://www.w3.org/2000/svg" version="1.1" viewBox="0 0 283.46 184.25">
  <defs>
    <style>
      .cls-1 {
        fill: #efefef;
      }

      .cls-2 {
        fill: #e6e400;
      }

      .cls-3 {
        fill: #224756;
      }
    </style>
  </defs>
  <!-- Generator: Adobe Illustrator 28.6.0, SVG Export Plug-In . SVG Version: 1.2.0 Build 709)  -->
  <g>
    <g id="_圖層_1" data-name="圖層_1">
      <rect class="cls-1" width="283.46" height="184.25"/>
      <g>
        <g>
          <polygon class="cls-2" points="144.53 84.52 138.98 84.52 127.83 101.07 133.38 101.07 144.53 84.52"/>
          <polygon class="cls-2" points="183.6 101.07 188.81 101.07 198.32 86.97 198.32 84.52 194.75 84.52 183.6 101.07"/>
          <polygon class="cls-2" points="133.38 84.52 127.83 84.52 116.68 101.07 122.23 101.07 133.38 84.52"/>
          <polygon class="cls-2" points="155.69 84.52 150.14 84.52 138.99 101.07 144.54 101.07 155.69 84.52"/>
          <polygon class="cls-2" points="94.38 101.07 99.93 101.07 111.07 84.52 105.53 84.52 94.38 101.07"/>
          <polygon class="cls-2" points="122.23 84.52 116.68 84.52 105.53 101.07 111.08 101.07 122.23 84.52"/>
          <polygon class="cls-2" points="166.84 84.52 161.29 84.52 150.14 101.07 155.69 101.07 166.84 84.52"/>
          <polygon class="cls-2" points="177.99 84.52 172.44 84.52 161.29 101.07 166.84 101.07 177.99 84.52"/>
          <polygon class="cls-2" points="99.92 84.52 94.54 84.52 85.15 98.46 85.15 101.07 88.77 101.07 99.92 84.52"/>
          <polygon class="cls-2" points="194.42 101.07 198.32 101.07 198.32 95.29 194.42 101.07"/>
          <polygon class="cls-2" points="88.94 84.52 85.15 84.52 85.15 90.14 88.94 84.52"/>
          <polygon class="cls-2" points="189.14 84.52 183.6 84.52 172.45 101.07 177.99 101.07 189.14 84.52"/>
        </g>
        <g>
          <g>
            <polygon class="cls-3" points="104.01 54.44 99.56 54.44 103.74 61.93 89.6 61.93 98.56 45.57 94.1 45.57 85.15 61.93 85.15 65.01 108.19 65.01 108.19 61.93 104.01 54.44"/>
            <path class="cls-3" d="M85.96,68.35v15.57h0v3.41h21.45v-3.41h0v-15.57h-21.45ZM104,83.91h-14.63v-12.16h14.63v12.16Z"/>
          </g>
          <g>
            <polygon class="cls-3" points="176.55 53.1 180.41 53.1 176.72 45.57 172.86 45.57 176.55 53.1"/>
            <polygon class="cls-3" points="177.64 84.16 179.17 80.08 179.17 57.03 180.41 57.03 180.41 54.11 172.86 54.11 172.86 57.03 175.93 57.03 175.93 80.08 174.4 84.16 173.57 84.16 173.57 87.37 196.97 87.37 196.97 84.16 177.64 84.16"/>
            <path class="cls-3" d="M194.05,54.66h-1.4l4.22-8.65h-15.04v2.91h9.51l-2.38,4.89-1.03-2.01h-3.86l1.46,2.86h-3.69v27.12h2.77v-7.85h3.34v5.55h2.77v-5.55h3.34v5.55h-2.09v2.91h4.86v-27.73h-2.77ZM194.05,57.58v5.28h-3.34v-5.28h3.34ZM187.93,57.58v5.28h-3.34v-5.28h3.34ZM184.59,71.02v-5.26h3.34v5.26h-3.34ZM190.7,71.02v-5.26h3.34v5.26h-3.34Z"/>
          </g>
          <path class="cls-3" d="M157.53,76.31c4.29-6.62,5.27-13.46,5.27-13.46h0c.02-.08.03-.16.05-.24l1.26,4.31h3.37l-4.48-15.28h4.38v-2.91h-9.35l-1.61-3.15h-3.86l1.61,3.15h-10.89v2.91h4.48l-4.48,15.28h3.37l1.21-4.12s0,.03,0,.05h0s.98,6.84,5.27,13.46c-2.44,3-5.63,5.8-9.86,8v3.01c5.3-1.59,9.2-4.63,12.05-8.03,2.86,3.41,6.75,6.44,12.05,8.03v-3.01c-4.22-2.2-7.42-5-9.86-8ZM149.91,55.81l1.22-4.16h8.51l1.14,3.88c-.15,3.2-.99,10.65-5.44,17.72-4.32-6.87-5.24-14.1-5.43-17.44Z"/>
          <g>
            <g>
              <polygon class="cls-3" points="114.96 53.87 118.14 53.87 116.74 45.57 113.57 45.57 114.96 53.87"/>
              <polygon class="cls-3" points="114.96 65.45 118.14 65.45 116.74 57.1 113.57 57.1 114.96 65.45"/>
              <polygon class="cls-3" points="116.74 87.32 113.57 87.32 115.49 69.52 118.66 69.52 116.74 87.32"/>
              <rect class="cls-3" x="125.31" y="50.77" width="5.91" height="2.23"/>
              <rect class="cls-3" x="125.31" y="54.28" width="5.91" height="2.23"/>
              <polygon class="cls-3" points="124.51 61.82 122.52 61.82 122.67 63.18 121.3 63.18 124.48 55.09 122.23 55.09 121.84 55.09 121.3 55.09 124.48 45.57 121.84 45.57 118.66 55.09 118.66 57.35 120.95 57.35 118.66 63.18 118.66 65.45 122.92 65.45 123.19 65.45 124.91 65.45 124.51 61.82"/>
              <polygon class="cls-3" points="137.5 61.82 135.51 61.82 135.67 63.18 134.29 63.18 137.47 55.09 135.22 55.09 134.84 55.09 134.29 55.09 137.47 45.57 134.84 45.57 131.66 55.09 131.66 57.35 133.95 57.35 131.66 63.18 131.66 65.45 135.92 65.45 136.19 65.45 137.91 65.45 137.5 61.82"/>
              <polygon class="cls-3" points="129.78 47.27 128.97 45.68 126.5 45.68 127.31 47.27 125.31 47.27 125.31 49.5 131.22 49.5 131.22 47.27 129.78 47.27"/>
              <path class="cls-3" d="M119.27,66.74v2.63h15.57v2.71h0s-15.57,0-15.57,0v7.96h15.2c-.41,1.24-2.44,3.91-12.37,4.35v-1.67h-2.83v4.64h1.67s.04,0,.1,0h1.56v-.05c4.09-.2,14.35-1.31,15.03-7.28h.04v-2.63h-15.57v-2.69h15.57v-2.63h0v-5.35h-18.4Z"/>
            </g>
            <rect class="cls-3" x="125.31" y="58.02" width="1.44" height="7.43"/>
            <rect class="cls-3" x="127.55" y="58.02" width="1.44" height="7.43"/>
            <rect class="cls-3" x="129.79" y="58.02" width="1.44" height="7.43"/>
          </g>
        </g>
        <g>
          <path class="cls-3" d="M127.45,128.31h6.47v-3.1h-6.47v-7.09h4.92v-2.53c1.06,1.91,1.49,2.45,1.49,2.45h3.82c-2.98-4.47-6.82-12.01-7.94-14.23-1.01-2.36-1.83-4.43-2.32-5.67,0-.02.02-.04.03-.07h-.05c-.28-.72-.44-1.15-.44-1.15h-3.49c.17.39.34.77.51,1.15h0s-.76,1.98-1.92,4.71c-.04.08-4.97,10-8.48,15.26h3.82s.4-.37,1.49-2.23v2.31h4.92v7.09h-6.47v3.1h6.47v7.09h-9.24v3.16h22.12v-3.16h-9.24v-7.09ZM125.71,101.97c3.05,6.72,5.08,10.72,6.34,13.06h-12.73c1.28-2.29,3.31-6.25,6.39-13.06Z"/>
          <g>
            <polygon class="cls-3" points="99.71 100.49 97.9 96.94 94.03 96.94 95.85 100.49 85.15 100.49 85.15 102.89 85.15 103.73 85.15 108.82 88.66 108.82 88.66 103.73 105.75 103.73 105.75 108.82 109.26 108.82 109.26 103.73 109.26 102.89 109.26 100.49 99.71 100.49"/>
            <path class="cls-3" d="M104.22,118.2h5.04v-3.25h-13.06l2.75-8.63h-3.86l-2.75,8.63h-7.19v3.25h6.15l-2.21,6.93,6.04,5.49c-1.99,2.6-4.66,5.36-8.23,7.99h5.31s2.7-2.24,5.38-5.77l6.35,5.77h5.32l-1.31-1.1h0s-8.42-7.51-8.42-7.51c.43-.71.85-1.44,1.22-2.2h0c2.69-4.4,3.47-9.61,3.47-9.61ZM93.2,124.37h0l1.97-6.17h5.72c-.07.55-.67,4.55-3.82,9.62l-3.87-3.45Z"/>
          </g>
          <g>
            <path class="cls-3" d="M164.35,96.94v.32h-18.1v-.32h-2.96v41.75h2.96v-.4h18.1v.4h2.96v-41.75h-2.96ZM164.35,135.88h-18.1v-36.22h18.1v36.22Z"/>
            <path class="cls-3" d="M148.53,115.79v18.81h13.62v-18.81h-13.62ZM159.74,132.19h-8.81v-14h8.81v14Z"/>
            <path class="cls-3" d="M156.54,111.44v-2.23h4.14v-8.13h-10.69v8.13h4.14v2.23h-6.68v2.41h15.77v-2.41h-6.68ZM152.4,103.47h5.88v3.32h-5.88v-3.32Z"/>
            <rect class="cls-3" x="152.34" y="120.35" width="1.44" height="9.34"/>
            <rect class="cls-3" x="154.58" y="120.35" width="1.44" height="9.34"/>
            <rect class="cls-3" x="156.81" y="120.35" width="1.44" height="9.34"/>
          </g>
          <g>
            <polygon class="cls-3" points="196.88 136.26 195.64 136.26 195.64 123.45 193.24 123.45 193.24 136.26 192.07 136.26 192.07 123.45 189.67 123.45 189.67 136.26 188.67 136.26 188.67 123.45 186.28 123.45 186.28 136.26 185.11 136.26 185.11 123.45 182.71 123.45 182.71 136.26 181.51 136.26 181.51 138.66 182.71 138.66 182.71 138.68 185.11 138.68 185.11 138.66 186.28 138.66 186.28 138.68 188.67 138.68 188.67 138.66 189.67 138.66 189.67 138.68 192.07 138.68 192.07 138.66 193.24 138.66 193.24 138.68 195.64 138.68 195.64 138.66 196.88 138.66 196.88 136.26"/>
            <path class="cls-3" d="M196.96,106.77v-3.97h-3.14l.39-5.65h-2.52s-.82,11.78-.82,11.78v-5.34h-2.4v-4.04h2.4v-2.4h-9.36v22.48h0v2.4h9.36v-2.4h-2.4v-4.19h2.4s.47,0,.47,0v6.58h5.57v-10.18h-3.72l.35-5.07h3.41ZM183.91,99.54h2.17v4.04h-2.17v-4.04ZM183.91,105.98h4.57v7.06h-4.57v-7.06ZM186.08,119.62h-2.17v-4.19h2.17v4.19Z"/>
            <polygon class="cls-3" points="181.62 128.78 181.62 125.06 178.57 126.79 178.57 124.13 180.7 124.13 180.7 121.36 178.57 121.36 178.57 114.61 180.7 114.61 180.7 111.84 175.81 111.84 177.26 102.33 178.99 109.31 181.51 109.3 178.49 97.14 177.01 97.14 175.53 97.14 172.86 114.61 173.37 114.61 173.37 114.61 174.12 114.61 175.38 114.62 175.38 114.61 175.91 114.61 175.91 121.36 173.37 121.36 173.37 124.13 175.91 124.13 175.91 130.31 172.86 128.58 172.86 132.3 175.91 134.19 175.91 135.14 172.86 135.76 172.86 138.53 181.51 136.78 181.51 134 178.57 134.6 178.57 130.67 181.62 128.78"/>
          </g>
        </g>
      </g>
    </g>
  </g>
</svg>