<?xml version="1.0" encoding="UTF-8"?>
<svg id="_圖層_1" data-name="圖層 1" xmlns="http://www.w3.org/2000/svg" viewBox="0 0 16 16">
  <defs>
    <style>
      .cls-1 {
        fill: #0087a5;
      }

      .cls-2 {
        fill: #fff;
      }
    </style>
  </defs>
  <rect class="cls-2" x="3.49" y="4" width="9.57" height="8.77"/>
  <path class="cls-1" d="m16,8c0,4.42-3.58,8-8,8S0,12.42,0,8,3.58,0,8,0s8,3.58,8,8m-7.5-3.5c0-.28-.22-.5-.5-.5s-.5.22-.5.5v5.79l-2.15-2.15c-.2-.2-.51-.2-.71,0s-.2.51,0,.71l3,3c.2.2.51.2.71,0,0,0,0,0,0,0l3-3c.2-.2.2-.51,0-.71s-.51-.2-.71,0l-2.15,2.15v-5.79Z"/>
</svg>