<?xml version="1.0" encoding="UTF-8"?>
<svg id="_圖層_1" data-name="圖層 1" xmlns="http://www.w3.org/2000/svg" viewBox="0 0 16 16">
  <defs>
    <style>
      .cls-1 {
        fill: #0087a5;
      }
    </style>
  </defs>
  <path class="cls-1" d="m11.74,10.34c2.12-2.9,1.49-6.96-1.4-9.09C7.45-.86,3.38-.24,1.26,2.66-.87,5.56-.24,9.62,2.66,11.74c2.29,1.68,5.4,1.68,7.69,0h0s.06.08.1.11l3.85,3.85c.39.39,1.02.39,1.41,0s.39-1.02,0-1.41l-3.85-3.85s-.07-.07-.11-.1h0Zm.26-3.84c0,3.04-2.46,5.5-5.5,5.5S1,9.54,1,6.5,3.46,1,6.5,1s5.5,2.46,5.5,5.5"/>
</svg>